# xmcd
#
# Track frame offsets: 
#        150
#        35793
#        69950
#        100114
#        122405
#        149474
#        178223
#        197435
#        227872
#
# Disc length: 3237 seconds
#
# Revision: 1
# Processed by: cddbd v1.5.2PL0 Copyright (c) Steve Scherf et al.
# Submitted via: ExactAudioCopyFreeDBPlugin 1.0
#
DISCID=7b0ca309
DTITLE=Laurent de Wilde - Over the Clouds
DYEAR=2012
DGENRE=Jazz
TTITLE0=Prelude to a Kiss
TTITLE1=Over the Clouds
TTITLE2=Fe Fe Naa Efe
TTITLE3=Le bon medicament
TTITLE4=Edward K
TTITLE5=Some kinda blues
TTITLE6=Irafrica
TTITLE7=New Nuclear Killer
TTITLE8=Over the Clouds (radio edit)
EXTD=YEAR: 2012
EXTT0=
EXTT1=
EXTT2=
EXTT3=
EXTT4=
EXTT5=
EXTT6=
EXTT7=
EXTT8=
PLAYORDER=
